<svg xmlns="http://www.w3.org/2000/svg" viewBox="0 0 832.14 516.24">
      <text class="cls-1" transform="translate(71.4 398.03) rotate(-10.48)">S</text>
      <text class="cls-1" transform="translate(80.22 395.84) rotate(14.34)">A</text>
      <text class="cls-1" transform="translate(91.44 398.91) rotate(34.74)">L</text>
      <text class="cls-1" transform="matrix(0.68, 0.73, -0.73, 0.68, 99.07, 404.09)">A</text>
      <text class="cls-1" transform="translate(107.54 413.24) rotate(52.68)">D</text>
      <text class="cls-1" transform="matrix(0.63, 0.78, -0.78, 0.63, 116.07, 424.65)">S</text>
      <path class="cls-2" d="M109.23,377.76l7.49-11.34c1.07-1.62-1.53-3.12-2.59-1.51l-7.49,11.34c-1.07,1.62,1.53,3.12,2.59,1.51Z"/>
      <path class="cls-2" d="M79.68,362.48a38.24,38.24,0,0,0-2.25-14.34c-.65-1.8-3.55-1-2.89.8a36,36,0,0,1,2.14,13.55c-.06,1.93,2.94,1.93,3,0Z"/>
      <path class="cls-2" d="M59.13,393a27.92,27.92,0,0,0-14.41,2c-1.75.73-1,3.64.8,2.89A26.12,26.12,0,0,1,59.13,396c1.91.24,1.89-2.76,0-3Z"/>
      <path class="cls-2" d="M80.53,415a18.21,18.21,0,0,1-9.15,10.15c-1.73.86-.21,3.45,1.51,2.59a21.25,21.25,0,0,0,10.53-11.95c.66-1.82-2.24-2.6-2.89-.8Z"/>
      <path class="cls-2" d="M96.7,431.47a22.23,22.23,0,0,1-2.09,10.13c-.82,1.74,1.77,3.26,2.59,1.51a25.61,25.61,0,0,0,2.5-11.64c0-1.93-3-1.93-3,0Z"/>
      <path class="cls-2" d="M118.64,453.47v6a1.5,1.5,0,0,0,3,0v-6a1.5,1.5,0,0,0-3,0Z"/>
      <path class="cls-2" d="M143.74,468.29A59.07,59.07,0,0,0,155,481.67c1.44,1.27,3.57-.84,2.12-2.12a56.34,56.34,0,0,1-10.76-12.77c-1-1.64-3.61-.14-2.59,1.51Z"/>
      <path class="cls-2" d="M164.73,457l10,2.17c1.88.41,2.69-2.48.8-2.89l-10-2.17c-1.88-.41-2.69,2.48-.8,2.89Z"/>
      <path class="cls-2" d="M169.16,432.25l14-.92c1.92-.13,1.93-3.13,0-3l-14,.92c-1.92.13-1.93,3.13,0,3Z"/>
      <path class="cls-2" d="M132.31,395.15a13.84,13.84,0,0,1,6.22-5.24c1.76-.73,1-3.64-.8-2.89a17.36,17.36,0,0,0-8,6.62c-1.06,1.62,1.54,3.13,2.59,1.51Z"/>
      <path class="cls-2" d="M154,416.39l5.08-5.93c1.25-1.46-.86-3.59-2.12-2.12l-5.08,5.93c-1.25,1.46.86,3.59,2.12,2.12Z"/>
      <path class="cls-2" d="M52.14,365a4.36,4.36,0,0,1,3.94,1.56c1.26,1.47,3.37-.66,2.12-2.12A7.13,7.13,0,0,0,52.14,362a1.54,1.54,0,0,0-1.5,1.5,1.51,1.51,0,0,0,1.5,1.5Z"/>
      <text class="cls-3" transform="matrix(0.58, -0.56, 0.7, 0.72, 659.36, 464.02)">O</text>
      <text class="cls-3" transform="matrix(0.55, -0.58, 0.73, 0.69, 666.63, 456.89)">U</text>
      <text class="cls-3" transform="translate(673.03 450.08) rotate(-46.52) scale(0.8 1)">R</text>
      <text class="cls-3" transform="translate(678.35 444.49) rotate(-45.38) scale(0.8 1)"> </text>
      <text class="cls-3" transform="translate(680.47 442.35) rotate(-44.36) scale(0.8 1)"> </text>
      <text class="cls-3" transform="matrix(0.59, -0.55, 0.68, 0.73, 682.59, 440.27)"> </text>
      <text class="cls-3" transform="matrix(0.6, -0.53, 0.66, 0.75, 684.78, 438.22)"> </text>
      <text class="cls-3" transform="matrix(0.62, -0.51, 0.64, 0.77, 686.99, 436.26)"> </text>
      <text class="cls-3" transform="matrix(0.64, -0.49, 0.61, 0.8, 689.25, 434.39)"> </text>
      <text class="cls-3" transform="translate(691.43 432.58) rotate(-32.58) scale(0.8 1)">P</text>
      <text class="cls-3" transform="translate(696.53 429.17) rotate(-25.49) scale(0.8 1)">A</text>
      <text class="cls-3" transform="translate(703.9 425.61) rotate(-16.95) scale(0.8 1)">C</text>
      <text class="cls-3" transform="translate(711.54 423.28) rotate(-8.76) scale(0.8 1)">K</text>
      <text class="cls-3" transform="matrix(0.8, -0.01, 0.01, 1, 719, 422.08)">A</text>
      <text class="cls-3" transform="translate(727.21 421.95) rotate(7.61) scale(0.8 1)">G</text>
      <text class="cls-3" transform="matrix(0.78, 0.2, -0.25, 0.97, 736.12, 423.19)">E</text>
      <path class="cls-2" d="M585.77,1.09c-2.84,18.47,12.63,33.6,24.6,45.5a138.69,138.69,0,0,0,21.49,17.71,67.16,67.16,0,0,0,12.33,6.65c4.81,1.88,10.57,2.72,13.6,7.34,1.06,1.61,3.65.11,2.59-1.51-4-6.1-11.39-6.8-17.57-9.64-9-4.14-17.27-10.55-24.56-17.17a186,186,0,0,1-18.6-19.34C593,22.53,587,12.78,588.66,1.88c.29-1.89-2.6-2.7-2.89-.8Z"/>
      <path class="cls-2" d="M397.8,447.83c-14.54,2.39-28.59-2.31-42.4-6.27-12.43-3.56-24.83-6.25-37.82-4.48-27.25,3.73-49.16,21.67-70.59,37.42-11.43,8.4-23.2,16.24-36.22,22a171.4,171.4,0,0,1-38.61,11.66,221.29,221.29,0,0,1-42.34,3.35c-13.8-.17-28.68-.58-42.1-4C73.93,504,67,490.3,58.37,480.15c-9.45-11.08-19.69-21.47-28.93-32.73C12.33,426.57-5.75,396,7.07,368.72c10-21.32,30.23-46.72,56.49-44.44,14.92,1.3,28.59,10.77,41.41,17.78,13.2,7.21,27.2,13.78,39.53,22.43,23.57,16.53,39.29,47.07,69.68,52.63,11,2,23.85.11,29.88-10.37,5.72-9.94,3.79-22.7,1.76-33.39-.36-1.89-3.25-1.09-2.89.8,2.15,11.31,4.6,27.21-5.3,35.77C226,420,207.29,413.53,196,406.5c-12-7.48-21.4-18.21-31.25-28.22a140.33,140.33,0,0,0-32.8-24.9C118,345.67,104,337.92,90,330.47c-11-5.8-22.78-10.74-35.45-8.9-22.82,3.31-39.56,24.64-49.25,44C-7,390.16,4.14,417.64,18.87,438.5,26.8,449.74,36.16,459.85,45.38,470c4.89,5.39,9.76,10.8,14.37,16.44,4.23,5.17,7.93,10.93,12.64,15.69,8.89,9,21.45,9.78,33.37,11a258.88,258.88,0,0,0,43,.88c26.33-1.75,52.56-8.09,75.72-21,28.12-15.68,50.77-41.24,82.33-50.53,16.34-4.81,31.72-2.62,47.78,2,14.42,4.14,28.83,8.76,44,6.27,1.9-.31,1.09-3.2-.8-2.89Z"/><path class="cls-2" d="M770.15,239.52c-2,17.38-3.91,35-7.61,52.15-3.28,15.18-10,31.15-24.61,38.52-7.38,3.72-19.2,5.86-22.07-4.41-2.16-7.73-2-20.3,6.77-23.81,9.71-3.89,15.55,9.22,17,16.61a34.43,34.43,0,0,1-4,24.07,34.82,34.82,0,0,1-17.19,14.5c-8.08,3.13-16.52,2.12-25,2.24a61.62,61.62,0,0,0-37.08,13.54A77.29,77.29,0,0,0,633,404.6a103.36,103.36,0,0,0-6.28,22.21c-1.08,6.38-2.28,13.46-1.54,19.92.82,7.11,6.3,10.72,11.55,14.84q9.59,7.54,19.31,14.93c13.32,10.14,26.62,20.72,40.75,29.71,11.4,7.26,23.92,11.3,37.51,9.67a54.62,54.62,0,0,0,31.43-14.7c10.51-10.19,15.23-24.53,20.25-37.9l9.39-25c2.11-5.6,5.27-11.06.22-15.88-2.42-2.31-4.62-4.23-6.45-7.12-2-3.14-3.52-6.56-5.57-9.66-3.52-5.32-8.5-8.84-14.11-11.73-14.06-7.23-28.76-14.92-43.73-20-23.33-8-49.32-1.87-67.42,14.74-9.94,9.12-15.5,20.39-19.44,33.12a204,204,0,0,1-9.32,24.72c-3,6.63-5.9,14.4-11.22,19.58-4.94,4.81-15.85,7.07-18.87-1.28-.65-1.8-3.55-1-2.89.8,3.37,9.32,15.38,9.63,22.26,4.07,5.49-4.43,8.43-11.22,11.36-17.44a205.54,205.54,0,0,0,9.37-22.61c2.64-8,4.61-16.17,8.72-23.55a61.39,61.39,0,0,1,12.66-15.74,67,67,0,0,1,38.16-16.79c16.56-1.53,31.1,5,45.72,11.94,7.71,3.68,15.53,7.18,23.12,11.08s12.27,9,16.39,16.45a44.44,44.44,0,0,0,5,7.74,42,42,0,0,0,3.6,3.41c2.75,2.51,2.53,5.37,1.27,8.77-3.2,8.66-6.5,17.28-9.74,25.92-5.83,15.53-10.94,32.71-24.47,43.42a51.81,51.81,0,0,1-41.58,10.16c-16.08-3.2-29.59-15.15-42.43-24.62q-10.83-8-21.51-16.16c-7.26-5.56-15.11-10.89-21.84-17.1-7.16-6.61-4.5-18.24-3-26.87a99.88,99.88,0,0,1,7.15-24.2c6.41-14.31,16.87-26.68,30.75-34.18a55.57,55.57,0,0,1,22.34-6.69c8.42-.6,17,.88,25.26-1.17a37.56,37.56,0,0,0,26.23-23.87c3.91-11.47,2.45-28.12-7.63-36.23-10.54-8.49-21,2.61-21.78,13.42-.38,5.44,0,13,3.72,17.41,3.4,4.07,8.89,4.64,13.84,3.93,32.39-4.65,36.84-45.39,40.42-70.89q1.79-12.78,3.27-25.6c.22-1.91-2.78-1.9-3,0Z"/>
</svg>
