<svg version="1.1" id="saladesvg" xmlns="http://www.w3.org/2000/svg" xlink="http://www.w3.org/1999/xlink" x="0px" y="0px" width="231px" height="235px" viewBox="0 0 231 235" enable-background="new 0 0 231 235" xml:space="preserve">
		<path fill="none" stroke="#FFFFFF" stroke-width="6" stroke-linecap="round" stroke-linejoin="round" stroke-miterlimit="10" d="
		M56.067,151.306c-17.035,11.384,14.359,32.447,14.041,43.604c-0.158,5.514-5.896,10.26-9.939,4.512" style="stroke-dasharray: 66.1023px; stroke-dashoffset: 66.1023px; visibility: visible; stroke-width: 6;"></path>
		<path fill="none" stroke="#FFFFFF" stroke-width="6" stroke-linecap="round" stroke-linejoin="round" stroke-miterlimit="10" d="
		M80.68,197.038c-2.11-9.591-4.262-19.246-5.044-29.055c-0.305-3.837-1.978-15.474,1.658-18.477
		c6.355-5.25,11.338,22.138,12.108,25.838c1.362,6.547,2.554,13.129,3.806,19.698" style="stroke-dasharray: 99.8344px; stroke-dashoffset: 99.8344px; visibility: visible; stroke-width: 6;"></path>
		<path fill="none" stroke="#FFFFFF" stroke-width="6" stroke-linecap="round" stroke-linejoin="round" stroke-miterlimit="10" d="
		M76.3,173.701c4.094-0.816,8.147-1.641,12.25-2.384" style="stroke-dasharray: 12.48px; stroke-dashoffset: 12.48px; visibility: visible; stroke-width: 6;"></path>
		<path fill="none" stroke="#FFFFFF" stroke-width="6" stroke-linecap="round" stroke-linejoin="round" stroke-miterlimit="10" d="
		M93.374,142.937c3.393,10.579,6.874,21.157,9.862,31.859c0.989,3.546,1.525,16.052,4.985,18.251c2.019,1.283,4.241-0.085,5.94-1.44" style="stroke-dasharray: 59.1353px; stroke-dashoffset: 59.1353px; visibility: visible; stroke-width: 6;"></path>
		<path fill="none" stroke="#FFFFFF" stroke-width="6" stroke-linecap="round" stroke-linejoin="round" stroke-miterlimit="10" d="
		M126.412,188.779c-2.912-8.051-5.671-16.153-7.471-24.535c-1.354-6.297-4.063-16.146-1.811-22.523
		c1.872-5.296,4.417-2.811,6.947,1.03c4.432,6.732,6.953,15.228,9.003,22.942c1.903,7.155,2.954,14.368,3.308,21.756" style="stroke-dasharray: 105.705px; stroke-dashoffset: 105.705px; visibility: visible; stroke-width: 6;"></path>
		<path fill="none" stroke="#FFFFFF" stroke-width="6" stroke-linecap="round" stroke-linejoin="round" stroke-miterlimit="10" d="
		M119.538,167.326c4.359-0.975,8.601-2.391,12.86-3.713" style="stroke-dasharray: 13.3895px; stroke-dashoffset: 13.3895px; visibility: visible; stroke-width: 6;"></path>
		<path fill="none" stroke="#FFFFFF" stroke-width="6" stroke-linecap="round" stroke-linejoin="round" stroke-miterlimit="10" d="
		M152.354,187.67c-5.855-17.212-13.708-35.068-17.342-52.877c15.597,12.94,24.518,27.666,20.501,48.758
		c-0.378,1.973-0.468,5.715-3.103,4.563" style="stroke-dasharray: 118.243px; stroke-dashoffset: 118.243px; visibility: visible; stroke-width: 6;"></path>
		<path fill="none" stroke="#FFFFFF" stroke-width="6" stroke-linecap="round" stroke-linejoin="round" stroke-miterlimit="10" d="
		M163.606,149.81c3.682-5.109,8.679-12.736,3.249-18.496c-4.514-4.787-7.268-1.504-6.469,3.787c1.255,8.307,4.28,15.909,4.839,24.436
		c0.355,5.433-0.631,16.602,4.674,20.277c6.201,4.297,7.63-6.062,8.231-10.159" style="stroke-dasharray: 95.3958px; stroke-dashoffset: 95.3958px; visibility: visible; stroke-width: 6;"></path>
		<path fill="none" stroke="#FFFFFF" stroke-width="6" stroke-linecap="round" stroke-linejoin="round" stroke-miterlimit="10" d="
		M183.119,121.871c-8.739,8.894,1.753,22.563,6.873,30.581c3.477,5.444,11.717,18.015,4.701,24.409
		c-2.077,1.893-3.842,1.789-5.698-0.721" style="stroke-dasharray: 67.7789px; stroke-dashoffset: 67.7789px; visibility: visible; stroke-width: 6;"></path>
		<path fill="none" stroke="#FFFFFF" stroke-width="6" stroke-linecap="round" stroke-linejoin="round" stroke-miterlimit="10" d="
		M65.878,62.003c2.403,8.323,3.878,16.878,6.058,25.257c0.508,1.947,4.323,17.91,8.244,10.331" style="stroke-dasharray: 43.3575px; stroke-dashoffset: 43.3575px; visibility: visible; stroke-width: 6;"></path>
		<path fill="none" stroke="#FFFFFF" stroke-width="6" stroke-linecap="round" stroke-linejoin="round" stroke-miterlimit="10" d="
		M85.613,58.235c-7.611,1.468-2.527,11.245-1.443,15.902c1.132,4.865,0.25,18.271,4.555,21.619c1.5,1.167,3.508,1.065,5.258,0.451" style="stroke-dasharray: 46.4052px; stroke-dashoffset: 46.4052px; visibility: visible; stroke-width: 6;"></path>
		<path fill="none" stroke="#FFFFFF" stroke-width="6" stroke-linecap="round" stroke-linejoin="round" stroke-miterlimit="10" d="
		M84.614,79.465c2.125-0.501,4.428-0.919,6.431-1.608" style="stroke-dasharray: 6.63238px; stroke-dashoffset: 6.63238px; visibility: visible; stroke-width: 6;"></path>
		<path fill="none" stroke="#FFFFFF" stroke-width="6" stroke-linecap="round" stroke-linejoin="round" stroke-miterlimit="10" d="
		M97.642,56.072c-9.674,8.819,19.948,35.264,8.523,38.972c-2.015,0.653-3.395-0.919-4.089-2.829" style="stroke-dasharray: 49.372px; stroke-dashoffset: 49.372px; visibility: visible; stroke-width: 6;"></path>
		<path fill="none" stroke="#FFFFFF" stroke-width="6" stroke-linecap="round" stroke-linejoin="round" stroke-miterlimit="10" d="
		M57.841,56.294c-3.027-2.057-6.174-3.629-8.758-6.264" style="stroke-dasharray: 10.7922px; stroke-dashoffset: 10.7922px; visibility: visible; stroke-width: 6;"></path>
		<path fill="none" stroke="#FFFFFF" stroke-width="6" stroke-linecap="round" stroke-linejoin="round" stroke-miterlimit="10" d="
		M84.394,45.817c-1.068-4.389-1.503-8.363-1.664-12.75" style="stroke-dasharray: 12.8814px; stroke-dashoffset: 12.8814px; visibility: visible; stroke-width: 6;"></path>
		<path fill="none" stroke="#FFFFFF" stroke-width="6" stroke-linecap="round" stroke-linejoin="round" stroke-miterlimit="10" d="
		M112.386,58.401c2.921-3.876,5.252-8.061,7.539-12.307" style="stroke-dasharray: 14.4471px; stroke-dashoffset: 14.4471px; visibility: visible; stroke-width: 6;"></path>
		<path fill="none" stroke="#FFFFFF" stroke-width="6" stroke-linecap="round" stroke-linejoin="round" stroke-miterlimit="10" d="
		M118.817,80.518c5.339,0.017,11.047-0.568,16.352,0.167" style="stroke-dasharray: 16.3705px; stroke-dashoffset: 16.3705px; visibility: visible; stroke-width: 6;"></path>
		<path fill="none" stroke="#FFFFFF" stroke-width="6" stroke-linecap="round" stroke-linejoin="round" stroke-miterlimit="10" d="
		M112.054,106.405c3.372,3.597,7.634,9.307,11.752,11.975" style="stroke-dasharray: 16.8243px; stroke-dashoffset: 16.8243px; visibility: visible; stroke-width: 6;"></path>
		<path fill="none" stroke="#FFFFFF" stroke-width="6" stroke-linecap="round" stroke-linejoin="round" stroke-miterlimit="10" d="
		M87.663,111.562c0.319,5.956-1.43,11.809-1.385,17.737" style="stroke-dasharray: 17.8135px; stroke-dashoffset: 17.8135px; visibility: visible; stroke-width: 6;"></path>
		<path fill="none" stroke="#FFFFFF" stroke-width="6" stroke-linecap="round" stroke-linejoin="round" stroke-miterlimit="10" d="
		M63.605,103.634c-5.007,2.913-10.255,6.414-15.743,8.425" style="stroke-dasharray: 17.8825px; stroke-dashoffset: 17.8825px; visibility: visible; stroke-width: 6;"></path>
		<path fill="none" stroke="#FFFFFF" stroke-width="6" stroke-linecap="round" stroke-linejoin="round" stroke-miterlimit="10" d="
		M53.406,78.634c-5.277,1.131-11.173,2.068-16.631,2.051" style="stroke-dasharray: 16.7881px; stroke-dashoffset: 16.7881px; visibility: visible; stroke-width: 6;"></path>
	</svg>
